<?xml version="1.0" standalone="no"?>
<!DOCTYPE svg PUBLIC "-//W3C//DTD SVG 20010904//EN"
 "http://www.w3.org/TR/2001/REC-SVG-20010904/DTD/svg10.dtd">
<svg version="1.0" xmlns="http://www.w3.org/2000/svg"
 width="200.000000pt" height="200.000000pt" viewBox="0 0 200.000000 200.000000"
 preserveAspectRatio="xMidYMid meet">

<g transform="translate(0.000000,200.000000) scale(0.100000,-0.100000)"
fill="#ff561d" stroke="none">
<path d="M575 1684 c-166 -24 -245 -48 -295 -91 -36 -30 -38 -52 -7 -80 68
-62 211 -96 407 -96 255 0 447 66 426 147 -8 32 -104 80 -201 101 -71 15 -276
27 -330 19z"/>
<path d="M250 1364 c0 -57 3 -68 26 -89 61 -56 226 -95 406 -95 l119 0 27 31
c42 51 122 109 148 109 13 0 41 -15 63 -35 58 -52 71 -42 71 56 0 43 -2 79 -4
79 -2 0 -25 -9 -51 -20 -205 -88 -554 -86 -752 5 l-53 24 0 -65z"/>
<path d="M1187 1323 c-4 -3 -7 -32 -7 -64 l0 -57 -37 -12 c-21 -7 -42 -16 -47
-21 -19 -17 -41 -9 -81 31 l-41 41 -47 -42 c-74 -65 -76 -74 -28 -123 l41 -41
-25 -60 -24 -60 -58 -3 c-32 -2 -61 -9 -65 -15 -9 -14 -11 -119 -2 -141 5 -12
20 -16 63 -16 l56 0 28 -62 27 -62 -40 -41 c-22 -22 -40 -45 -40 -51 0 -12
102 -114 115 -114 5 0 27 18 50 40 l40 39 57 -22 58 -22 0 -62 0 -62 45 -7
c25 -3 65 -3 90 0 l45 7 0 65 c0 50 3 64 15 64 8 0 35 10 60 22 l45 22 45 -44
45 -44 31 30 c18 16 45 43 60 59 l28 30 -43 43 -43 43 26 65 25 64 63 0 63 0
0 85 0 85 -64 0 -64 0 -17 50 c-9 27 -21 53 -27 56 -5 4 11 28 38 55 l48 48
-62 63 -62 62 -44 -43 -44 -43 -61 23 -61 24 0 62 0 63 -83 0 c-46 0 -87 -3
-90 -7z m146 -357 c104 -43 126 -175 43 -255 -61 -59 -166 -54 -221 11 -107
127 25 308 178 244z"/>
<path d="M250 1127 c0 -53 4 -67 23 -84 53 -49 177 -87 323 -98 89 -7 91 -7
117 19 21 21 35 26 77 26 27 0 50 4 50 10 0 5 -15 29 -32 53 l-33 44 -140 6
c-146 5 -255 27 -336 66 -24 12 -44 21 -46 21 -2 0 -3 -28 -3 -63z"/>
<path d="M250 896 c0 -37 6 -70 14 -82 35 -49 222 -104 356 -104 l70 0 -6 73
c-4 39 -7 73 -8 73 0 1 -48 7 -105 13 -121 13 -207 34 -273 65 l-48 23 0 -61z"/>
</g>
</svg>
