<?xml version="1.0" standalone="no"?>
<!DOCTYPE svg PUBLIC "-//W3C//DTD SVG 20010904//EN"
 "http://www.w3.org/TR/2001/REC-SVG-20010904/DTD/svg10.dtd">
<svg version="1.0" xmlns="http://www.w3.org/2000/svg"
 width="256.000000pt" height="256.000000pt" viewBox="0 0 256.000000 256.000000"
 preserveAspectRatio="xMidYMid meet">

<g transform="translate(0.000000,256.000000) scale(0.100000,-0.100000)"
fill="#ff561d" stroke="none">
<path d="M150 2467 c-49 -16 -123 -93 -138 -143 -17 -59 -17 -1579 0 -1638 16
-54 90 -128 144 -144 29 -8 142 -12 378 -12 185 0 336 -3 336 -7 0 -4 -21 -72
-47 -150 l-47 -143 -129 0 c-159 0 -187 -11 -187 -75 0 -78 -33 -75 820 -75
853 0 820 -3 820 75 0 64 -28 75 -187 75 l-129 0 -47 143 c-26 78 -47 146 -47
150 0 4 151 7 336 7 236 0 349 4 378 12 54 16 128 90 144 144 17 59 17 1579 0
1638 -16 54 -90 128 -144 144 -56 16 -2201 16 -2254 -1z m2235 -162 l25 -24 0
-651 0 -650 -150 0 -150 0 0 103 c0 174 -15 197 -134 197 -63 0 -64 1 -75 32
-10 30 -9 34 39 84 77 81 74 91 -66 234 -64 65 -128 123 -143 128 -36 13 -75
-5 -124 -56 -36 -37 -41 -39 -68 -29 -27 11 -29 15 -29 62 0 74 -16 120 -46
133 -34 16 -334 16 -368 0 -30 -13 -46 -59 -46 -133 0 -47 -2 -51 -29 -62 -27
-10 -32 -8 -68 29 -49 51 -88 69 -124 56 -15 -5 -79 -63 -143 -128 -140 -143
-143 -153 -66 -234 48 -50 49 -54 39 -84 -11 -31 -12 -32 -75 -32 -119 0 -134
-23 -134 -197 l0 -103 -150 0 -150 0 0 650 0 651 25 24 24 25 1081 0 1081 0
24 -25z m-1034 -617 c0 -24 5 -59 12 -78 11 -30 20 -37 82 -60 39 -15 80 -32
92 -38 42 -23 75 -14 120 30 l43 42 55 -54 54 -54 -44 -47 c-50 -54 -54 -72
-25 -129 11 -21 29 -64 41 -95 11 -30 29 -60 39 -65 10 -6 44 -10 74 -10 l56
0 0 -75 0 -75 -149 0 -149 0 -4 88 c-4 108 -35 181 -106 250 -118 115 -284
142 -429 70 -66 -33 -139 -108 -171 -175 -21 -46 -27 -77 -30 -145 l-4 -88
-149 0 -149 0 0 75 0 75 56 0 c30 0 64 4 74 10 10 5 28 35 39 65 12 31 30 74
41 95 29 57 25 75 -25 129 l-44 47 54 54 55 54 43 -42 c49 -48 77 -53 135 -23
20 10 61 26 90 35 66 22 79 46 81 149 1 27 1 27 71 27 l70 0 1 -42z m29 -435
c31 -17 65 -45 84 -71 28 -40 31 -51 31 -120 l0 -77 -215 0 -215 0 0 77 c0 69
3 80 31 120 41 56 119 98 184 98 33 0 64 -9 100 -27z m1030 -473 c0 -41 -5
-56 -25 -75 l-24 -25 -1081 0 -1081 0 -24 25 c-20 19 -25 34 -25 75 l0 50
1130 0 1130 0 0 -50z m-837 -393 c26 -78 47 -146 47 -150 0 -4 -153 -7 -340
-7 -187 0 -340 3 -340 7 0 4 21 72 47 150 l47 143 246 0 246 0 47 -143z"/>
<path d="M1930 2153 c-31 -17 -65 -45 -84 -71 -29 -41 -31 -50 -31 -127 0 -77
2 -86 31 -127 41 -56 119 -98 184 -98 65 0 143 42 184 98 29 41 31 50 31 127
0 77 -2 86 -31 127 -41 56 -119 98 -184 98 -33 0 -64 -9 -100 -27z m133 -134
c29 -16 37 -28 37 -64 0 -36 -7 -48 -38 -64 -47 -25 -102 9 -102 62 0 37 7 49
35 65 26 15 41 15 68 1z"/>
</g>
</svg>
